{"asset":{"generator":"glTF-Transform v3.5.1","version":"2.0","extras":{"author":"Nintega Dario (https://sketchfab.com/nintegadario)","license":"CC-BY-4.0 (http://creativecommons.org/licenses/by/4.0/)","source":"https://sketchfab.com/3d-models/mario-mario-party-10-602c6fbb4f1c4818b9682fb7fd19db25","title":"Mario (Mario Party 10)"}},"accessors":[{"type":"VEC3","componentType":5126,"count":2747,"max":[0.30748000741004944,0.38927000761032104,-1.4477349452590715e-7],"min":[-0.8246170282363892,-0.32320600748062134,-1.5423799753189087],"bufferView":0,"byteOffset":0},{"type":"VEC3","componentType":5126,"count":2747,"bufferView":0,"byteOffset":12},{"type":"VEC4","componentType":5126,"count":2747,"bufferView":0,"byteOffset":24},{"type":"VEC2","componentType":5126,"count":2747,"bufferView":0,"byteOffset":40},{"type":"VEC4","componentType":5123,"count":2747,"bufferView":0,"byteOffset":48},{"type":"VEC4","componentType":5126,"count":2747,"bufferView":0,"byteOffset":56},{"type":"VEC3","componentType":5126,"count":1048,"max":[0.8246170282363892,0.21764929592609406,-2.2351740369686013e-7],"min":[-0.23600700497627258,-0.16288849711418152,-1.294801950454712],"bufferView":1,"byteOffset":0},{"type":"VEC3","componentType":5126,"count":1048,"bufferView":1,"byteOffset":12},{"type":"VEC4","componentType":5126,"count":1048,"bufferView":1,"byteOffset":24},{"type":"VEC2","componentType":5126,"count":1048,"bufferView":1,"byteOffset":40},{"type":"VEC4","componentType":5123,"count":1048,"bufferView":1,"byteOffset":48},{"type":"VEC4","componentType":5126,"count":1048,"bufferView":1,"byteOffset":56},{"type":"VEC3","componentType":5126,"count":94,"max":[0.6982861757278442,0.2368309050798416,-1.3606279480882222e-7],"min":[-0.0063390000723302364,-0.011623620055615902,-0.813755989074707],"bufferView":2,"byteOffset":0},{"type":"VEC3","componentType":5126,"count":94,"bufferView":2,"byteOffset":12},{"type":"VEC4","componentType":5126,"count":94,"bufferView":2,"byteOffset":24},{"type":"VEC2","componentType":5126,"count":94,"bufferView":2,"byteOffset":40},{"type":"VEC4","componentType":5123,"count":94,"bufferView":2,"byteOffset":48},{"type":"VEC4","componentType":5126,"count":94,"bufferView":2,"byteOffset":56},{"type":"VEC3","componentType":5126,"count":45,"max":[0.15922999382019043,0.23173199594020844,-1.090559959411621],"min":[0.019493000581860542,0.15887600183486938,-1.248829960823059],"bufferView":3,"byteOffset":0},{"type":"VEC3","componentType":5126,"count":45,"bufferView":3,"byteOffset":12},{"type":"VEC2","componentType":5126,"count":45,"bufferView":3,"byteOffset":24},{"type":"VEC4","componentType":5123,"count":45,"bufferView":3,"byteOffset":32},{"type":"VEC4","componentType":5126,"count":45,"bufferView":3,"byteOffset":40},{"type":"VEC3","componentType":5126,"count":45,"max":[0.15922999382019043,0.23173199594020844,-1.090559959411621],"min":[0.019493000581860542,0.15887600183486938,-1.248829960823059],"bufferView":4,"byteOffset":0},{"type":"VEC3","componentType":5126,"count":45,"bufferView":4,"byteOffset":12},{"type":"VEC4","componentType":5126,"count":45,"bufferView":4,"byteOffset":24},{"type":"VEC2","componentType":5126,"count":45,"bufferView":4,"byteOffset":40},{"type":"VEC4","componentType":5123,"count":45,"bufferView":4,"byteOffset":48},{"type":"VEC4","componentType":5126,"count":45,"bufferView":4,"byteOffset":56},{"type":"VEC3","componentType":5126,"count":45,"max":[-0.019493000581860542,0.23173199594020844,-1.090559959411621],"min":[-0.15922999382019043,0.15887600183486938,-1.248829960823059],"bufferView":5,"byteOffset":0},{"type":"VEC3","componentType":5126,"count":45,"bufferView":5,"byteOffset":12},{"type":"VEC2","componentType":5126,"count":45,"bufferView":5,"byteOffset":24},{"type":"VEC4","componentType":5123,"count":45,"bufferView":5,"byteOffset":32},{"type":"VEC4","componentType":5126,"count":45,"bufferView":5,"byteOffset":40},{"type":"VEC3","componentType":5126,"count":45,"max":[-0.019493000581860542,0.23173199594020844,-1.090559959411621],"min":[-0.15922999382019043,0.15887600183486938,-1.248829960823059],"bufferView":6,"byteOffset":0},{"type":"VEC3","componentType":5126,"count":45,"bufferView":6,"byteOffset":12},{"type":"VEC4","componentType":5126,"count":45,"bufferView":6,"byteOffset":24},{"type":"VEC2","componentType":5126,"count":45,"bufferView":6,"byteOffset":40},{"type":"VEC4","componentType":5123,"count":45,"bufferView":6,"byteOffset":48},{"type":"VEC4","componentType":5126,"count":45,"bufferView":6,"byteOffset":56},{"type":"VEC3","componentType":5126,"count":88,"max":[0.16854800283908844,0.19853399693965912,-0.7182649970054626],"min":[-0.16854800283908844,0.13743600249290466,-0.7966949939727783],"bufferView":7,"byteOffset":0},{"type":"VEC3","componentType":5126,"count":88,"bufferView":7,"byteOffset":12},{"type":"VEC4","componentType":5126,"count":88,"bufferView":7,"byteOffset":24},{"type":"VEC2","componentType":5126,"count":88,"bufferView":7,"byteOffset":40},{"type":"VEC4","componentType":5123,"count":88,"bufferView":7,"byteOffset":48},{"type":"VEC4","componentType":5126,"count":88,"bufferView":7,"byteOffset":56},{"type":"SCALAR","componentType":5125,"count":9984,"bufferView":8,"byteOffset":0},{"type":"SCALAR","componentType":5125,"count":3822,"bufferView":8,"byteOffset":39936},{"type":"SCALAR","componentType":5125,"count":294,"bufferView":8,"byteOffset":55224},{"type":"SCALAR","componentType":5125,"count":219,"bufferView":8,"byteOffset":56400},{"type":"SCALAR","componentType":5125,"count":219,"bufferView":8,"byteOffset":57276},{"type":"SCALAR","componentType":5125,"count":219,"bufferView":8,"byteOffset":58152},{"type":"SCALAR","componentType":5125,"count":219,"bufferView":8,"byteOffset":59028},{"type":"SCALAR","componentType":5125,"count":384,"bufferView":8,"byteOffset":59904},{"type":"MAT4","componentType":5126,"count":66,"bufferView":9,"byteOffset":0}],"bufferViews":[{"buffer":0,"byteOffset":0,"byteLength":197784,"byteStride":72,"target":34962},{"buffer":0,"byteOffset":197784,"byteLength":75456,"byteStride":72,"target":34962},{"buffer":0,"byteOffset":273240,"byteLength":6768,"byteStride":72,"target":34962},{"buffer":0,"byteOffset":280008,"byteLength":2520,"byteStride":56,"target":34962},{"buffer":0,"byteOffset":282528,"byteLength":3240,"byteStride":72,"target":34962},{"buffer":0,"byteOffset":285768,"byteLength":2520,"byteStride":56,"target":34962},{"buffer":0,"byteOffset":288288,"byteLength":3240,"byteStride":72,"target":34962},{"buffer":0,"byteOffset":291528,"byteLength":6336,"byteStride":72,"target":34962},{"buffer":0,"byteOffset":297864,"byteLength":61440,"target":34963},{"buffer":0,"byteOffset":359304,"byteLength":4224}],"samplers":[{"magFilter":9729,"minFilter":9987,"wrapS":10497,"wrapT":10497}],"textures":[{"source":0,"sampler":0},{"source":1,"sampler":0},{"source":8,"sampler":0},{"source":10,"sampler":0},{"source":12,"sampler":0},{"source":2,"sampler":0},{"source":3,"sampler":0},{"source":4,"sampler":0},{"source":14,"sampler":0},{"source":5,"sampler":0},{"source":6,"sampler":0},{"source":16,"sampler":0},{"source":18,"sampler":0},{"source":7,"sampler":0},{"source":9,"sampler":0},{"source":11,"sampler":0},{"source":13,"sampler":0},{"source":15,"sampler":0},{"source":17,"sampler":0}],"images":[{"mimeType":"image/png","uri":"textures/pc01_body_diffuse.png"},{"mimeType":"image/png","uri":"textures/pc01_body_normal.png"},{"mimeType":"image/png","uri":"textures/pc01_eye_diffuse.png"},{"mimeType":"image/png","uri":"textures/pc01_eyelid_diffuse.png"},{"mimeType":"image/png","uri":"textures/pc01_eyelid_normal.png"},{"mimeType":"image/png","uri":"textures/pc01_eyelid_0_diffuse.png"},{"mimeType":"image/png","uri":"textures/pc01_eyelid_0_normal.png"},{"mimeType":"image/png","uri":"specular_1.png"},{"mimeType":"image/png","uri":"metallicRoughness_1.png"},{"mimeType":"image/png","uri":"specular_2.png"},{"mimeType":"image/png","uri":"metallicRoughness_2.png"},{"mimeType":"image/png","uri":"specular_3.png"},{"mimeType":"image/png","uri":"metallicRoughness_3.png"},{"mimeType":"image/png","uri":"specular_4.png"},{"mimeType":"image/png","uri":"metallicRoughness_4.png"},{"mimeType":"image/png","uri":"specular_5.png"},{"mimeType":"image/png","uri":"metallicRoughness_5.png"},{"mimeType":"image/png","uri":"specular_6.png"},{"mimeType":"image/png","uri":"metallicRoughness_6.png"}],"buffers":[{"uri":"scene.bin","byteLength":363528}],"materials":[{"name":"pc01_body","doubleSided":true,"pbrMetallicRoughness":{"metallicFactor":0,"baseColorTexture":{"index":0},"metallicRoughnessTexture":{"index":2}},"normalTexture":{"index":1},"extensions":{"KHR_materials_ior":{"ior":1000},"KHR_materials_specular":{"specularTexture":{"index":13},"specularColorTexture":{"index":13}}}},{"name":"pc01_body_0","doubleSided":true,"pbrMetallicRoughness":{"metallicFactor":0,"baseColorTexture":{"index":0},"metallicRoughnessTexture":{"index":3}},"normalTexture":{"index":1},"extensions":{"KHR_materials_ior":{"ior":1000},"KHR_materials_specular":{"specularTexture":{"index":14},"specularColorTexture":{"index":14}}}},{"name":"pc01_body_1","doubleSided":true,"pbrMetallicRoughness":{"metallicFactor":0,"baseColorTexture":{"index":0},"metallicRoughnessTexture":{"index":4}},"normalTexture":{"index":1},"extensions":{"KHR_materials_ior":{"ior":1000},"KHR_materials_specular":{"specularTexture":{"index":15},"specularColorTexture":{"index":15}}}},{"name":"pc01_eye","doubleSided":true,"pbrMetallicRoughness":{"roughnessFactor":0.8929713596,"metallicFactor":0,"baseColorTexture":{"index":5}},"extensions":{"KHR_materials_ior":{"ior":1000},"KHR_materials_specular":{"specularColorFactor":[0,0,0]}}},{"name":"pc01_eyelid","alphaMode":"BLEND","doubleSided":true,"pbrMetallicRoughness":{"metallicFactor":0,"baseColorTexture":{"index":6},"metallicRoughnessTexture":{"index":8}},"normalTexture":{"index":7},"extensions":{"KHR_materials_ior":{"ior":1000},"KHR_materials_specular":{"specularTexture":{"index":16},"specularColorTexture":{"index":16}}}},{"name":"pc01_eye_0","doubleSided":true,"pbrMetallicRoughness":{"roughnessFactor":0.8929713596,"metallicFactor":0,"baseColorTexture":{"index":5}},"extensions":{"KHR_materials_ior":{"ior":1000},"KHR_materials_specular":{"specularColorFactor":[0.05,0.05,0.05]}}},{"name":"pc01_eyelid_0","alphaMode":"BLEND","doubleSided":true,"pbrMetallicRoughness":{"metallicFactor":0,"baseColorTexture":{"index":9},"metallicRoughnessTexture":{"index":11}},"normalTexture":{"index":10},"extensions":{"KHR_materials_ior":{"ior":1000},"KHR_materials_specular":{"specularTexture":{"index":17},"specularColorTexture":{"index":17}}}},{"name":"pc01_body_2","doubleSided":true,"pbrMetallicRoughness":{"metallicFactor":0,"baseColorTexture":{"index":0},"metallicRoughnessTexture":{"index":12}},"normalTexture":{"index":1},"extensions":{"KHR_materials_ior":{"ior":1000},"KHR_materials_specular":{"specularTexture":{"index":18},"specularColorTexture":{"index":18}}}}],"meshes":[{"name":"mario_m1Shape[0][0]_pc01_body_0","primitives":[{"attributes":{"JOINTS_0":4,"NORMAL":1,"POSITION":0,"TANGENT":2,"TEXCOORD_0":3,"WEIGHTS_0":5},"mode":4,"material":0,"indices":46}]},{"name":"mario_m1Shape[0][0]_pc01_body_0","primitives":[{"attributes":{"JOINTS_0":10,"NORMAL":7,"POSITION":6,"TANGENT":8,"TEXCOORD_0":9,"WEIGHTS_0":11},"mode":4,"material":1,"indices":47}]},{"name":"mario_m1Shape[0][0]_pc01_body_0","primitives":[{"attributes":{"JOINTS_0":16,"NORMAL":13,"POSITION":12,"TANGENT":14,"TEXCOORD_0":15,"WEIGHTS_0":17},"mode":4,"material":2,"indices":48}]},{"name":"mario_m1Shape[0][1]_pc01_eye_0","primitives":[{"attributes":{"JOINTS_0":21,"NORMAL":19,"POSITION":18,"TEXCOORD_0":20,"WEIGHTS_0":22},"mode":4,"material":3,"indices":49}]},{"name":"mario_m1Shape[0][1] (Layer 2)_pc01_eyelid_0","primitives":[{"attributes":{"JOINTS_0":27,"NORMAL":24,"POSITION":23,"TANGENT":25,"TEXCOORD_0":26,"WEIGHTS_0":28},"mode":4,"material":4,"indices":50}]},{"name":"mario_m1Shape[0][2]_pc01_eye_0","primitives":[{"attributes":{"JOINTS_0":32,"NORMAL":30,"POSITION":29,"TEXCOORD_0":31,"WEIGHTS_0":33},"mode":4,"material":5,"indices":51}]},{"name":"mario_m1Shape[0][2] (Layer 2)_pc01_eyelid_0","primitives":[{"attributes":{"JOINTS_0":38,"NORMAL":35,"POSITION":34,"TANGENT":36,"TEXCOORD_0":37,"WEIGHTS_0":39},"mode":4,"material":6,"indices":52}]},{"name":"mario_m1Shape[0][3]_pc01_body_0","primitives":[{"attributes":{"JOINTS_0":44,"NORMAL":41,"POSITION":40,"TANGENT":42,"TEXCOORD_0":43,"WEIGHTS_0":45},"mode":4,"material":7,"indices":53}]}],"nodes":[{"name":"Sketchfab_model","rotation":[-0.7071067811865475,0,0,0.7071067811865476],"children":[1]},{"name":"Mario.FBX","rotation":[0.7071067811865475,0,0,0.7071067811865476],"children":[2]},{"name":"RootNode","children":[3]},{"name":"Object_3","children":[4,6,8,10,12,14,16,18,20,5,7,9,11,13,15,17,19]},{"name":"_rootJoint","children":[21]},{"name":"Object_5","rotation":[-0.7071067811865475,4.679240168838581e-24,4.67924015759803e-24,0.7071067811865476]},{"name":"Object_6","mesh":0,"skin":0},{"name":"Object_7","rotation":[-0.7071067811865475,0,0,0.7071067811865476]},{"name":"Object_8","mesh":1,"skin":0},{"name":"Object_9","rotation":[-0.7071067811865475,0,0,0.7071067811865476]},{"name":"Object_10","mesh":2,"skin":0},{"name":"Object_11","rotation":[-0.7071067811865475,0,0,0.7071067811865476]},{"name":"Object_12","mesh":3,"skin":0},{"name":"Object_13","rotation":[-0.7071067811865475,0,0,0.7071067811865476]},{"name":"Object_14","mesh":4,"skin":0},{"name":"Object_15","rotation":[-0.7071067811865475,0,0,0.7071067811865476]},{"name":"Object_16","mesh":5,"skin":0},{"name":"Object_17","rotation":[-0.7071067811865475,0,0,0.7071067811865476]},{"name":"Object_18","mesh":6,"skin":0},{"name":"Object_19","rotation":[-0.7071067811865475,0,0,0.7071067811865476]},{"name":"Object_20","mesh":7,"skin":0},{"name":"MayaRoot_01","translation":[-0.09728594869375229,-0.10934829711914062,-1.7496910095214844],"rotation":[-0.018447529524564743,0,0,0.9998299479484558],"scale":[59.154483795166016,59.154483795166016,59.154483795166016],"children":[22]},{"name":"NDcha_pos_02","children":[23]},{"name":"pelvis_03","translation":[0,0.6370000243186951,-0.03999999910593033],"children":[24,74,80]},{"name":"spine00_04","translation":[0,0.019999980926513672,0],"children":[25,40,57]},{"name":"head_05","translation":[0,0.2550100088119507,7.450580596923828e-9],"children":[26]},{"name":"head_aimcont_06","children":[27,28,31,34,36,37,38,39]},{"name":"cap_07","translation":[0,0.3868400454521179,-7.450580596923828e-9]},{"name":"L_brow_1_08","translation":[0.04122000187635422,0.30664998292922974,0.2516700029373169],"rotation":[-0.2440447360277176,-0.535723090171814,-0.1611635535955429,0.7921295762062073],"children":[29]},{"name":"L_brow_2_09","translation":[0.00041000545024871826,0.05506998300552368,0],"rotation":[-0.4143967926502228,0.0015404848381876945,-0.0033833549823611975,0.9100887179374695],"children":[30]},{"name":"L_brow_3_010","translation":[2.9802322387695312e-8,0.05048002302646637,1.1920928955078125e-7],"rotation":[-0.49058422446250916,6.661463913815169e-8,-4.2387579668456965e-8,0.8713937997817993]},{"name":"R_brow_1_011","translation":[-0.041220005601644516,0.30664998292922974,0.2516700029373169],"rotation":[0.792129635810852,0.1611633598804474,-0.5357231497764587,0.24404451251029968],"children":[32]},{"name":"R_brow_2_012","translation":[-0.0004099905490875244,-0.05506807565689087,9.5367431640625e-7],"rotation":[-0.41439658403396606,0.0015404588775709271,-0.003383311443030834,0.910088837146759],"children":[33]},{"name":"R_brow_3_013","translation":[2.9802322387695312e-8,-0.05047999322414398,-0.0000020265579223632812],"rotation":[-0.490584135055542,7.542030999729832e-8,-1.3776116247754544e-7,0.8713938593864441]},{"name":"chin_014","translation":[0,0.1199999451637268,0.019999999552965164],"rotation":[0.8515349626541138,0,0,0.524297833442688],"children":[35]},{"name":"lower_lip_015","translation":[0,0.25947803258895874,-0.043174028396606445],"rotation":[-0.7660444378852844,0,0,0.6427876353263855]},{"name":"upper_lip_016","translation":[0,0.07001000642776489,0.28446701169013977],"rotation":[0.10452860593795776,0,0,0.994521975517273]},{"name":"L_lip_017","translation":[0.07409000396728516,0.05841994285583496,0.26440998911857605],"rotation":[0.21315120160579681,0.1695318967103958,-0.037584275007247925,0.9614640474319458]},{"name":"R_lip_018","translation":[-0.07408998906612396,0.05841994285583496,0.26440998911857605],"rotation":[0.961463987827301,0.037584248930215836,0.1695319414138794,-0.21315094828605652]},{"name":"attach_head_019","translation":[0,0.3999999165534973,-7.450580596923828e-9]},{"name":"L_clavicle_020","translation":[0.030000001192092896,0.18501001596450806,0.009999997913837433],"rotation":[0.70710688829422,0.7071066498756409,-1.3636166329433763e-7,-1.3899588680033048e-7],"children":[41]},{"name":"L_upperarm_021","translation":[-5.960464477539063e-8,0.14000000059604645,-1.4901161193847656e-8],"children":[42,56]},{"name":"L_forearm_022","translation":[0,0.14979995787143707,7.450580596923828e-9],"children":[43,55]},{"name":"L_hand_023","translation":[0,0.14075002074241638,1.3877787807814457e-17],"rotation":[8.429371689544496e-8,0.7071068286895752,-8.429371689544496e-8,0.7071068286895752],"children":[44,46,48,50,52,54]},{"name":"L_finger2_1_024","translation":[0.0246100053191185,0.190329909324646,0.06125998497009277],"children":[45]},{"name":"L_finger2_2_025","translation":[7.450580596923828e-9,0.0789499282836914,5.960464477539063e-8]},{"name":"L_finger3_1_026","translation":[-0.03292998671531677,0.1839699149131775,0.06093001365661621],"children":[47]},{"name":"L_finger3_2_027","translation":[0,0.07719999551773071,5.960464477539063e-8]},{"name":"L_finger4_1_028","translation":[-0.0861399918794632,0.17963993549346924,0.050000011920928955],"children":[49]},{"name":"L_finger4_2_029","translation":[2.7755575615628914e-17,0.052820026874542236,0]},{"name":"L_thumb_1_030","translation":[0.06000000238418579,0.047789931297302246,-0.040029942989349365],"rotation":[0.18301276862621307,0.6830127239227295,-0.18301276862621307,0.6830127239227295],"children":[51]},{"name":"L_thumb_2_031","translation":[5.960464477539063e-8,0.1352999210357666,5.551115123125783e-17]},{"name":"L_finger1_1_032","translation":[0.07999999821186066,0.18671995401382446,0.04999995231628418],"children":[53]},{"name":"L_finger1_2_033","translation":[1.862645149230957e-9,0.06977999210357666,5.960464477539063e-8]},{"name":"attach_L_hand_034","translation":[7.450580596923828e-9,0.19999992847442627,-0.025000035762786865],"rotation":[0.5000000596046448,0.5,0.5000000596046448,0.5000000596046448]},{"name":"L_hand_roll_035","translation":[0,0.14075002074241638,1.3877787807814457e-17],"rotation":[8.429371689544496e-8,0.7071068286895752,-8.429371689544496e-8,0.7071068286895752]},{"name":"L_elbow_036","translation":[0,0.14979995787143707,7.450580596923828e-9]},{"name":"R_clavicle_037","translation":[-0.030000001192092896,0.18501001596450806,0.009999997913837433],"rotation":[1.3170888824021176e-9,1.31708943751363e-9,-0.7071066498756409,0.70710688829422],"children":[58]},{"name":"R_upperarm_038","translation":[5.960464477539063e-8,-0.14000001549720764,-6.938893903907228e-18],"children":[59,73]},{"name":"R_forearm_039","translation":[0,-0.14980000257492065,-7.450580596923828e-9],"children":[60,72]},{"name":"R_hand_040","translation":[1.1102230246251565e-16,-0.140749990940094,0],"rotation":[2.6224988403100724e-8,0.7071068286895752,-2.6224988403100724e-8,0.7071068286895752],"children":[61,63,65,67,69,71]},{"name":"R_finger2_1_041","translation":[-0.024609990417957306,-0.19032996892929077,-0.06125986576080322],"children":[62]},{"name":"R_finger2_2_042","translation":[0,-0.0789499282836914,1.1102230246251565e-16]},{"name":"R_finger3_1_043","translation":[0.03292999416589737,-0.18396997451782227,-0.060929954051971436],"children":[64]},{"name":"R_finger3_2_044","translation":[1.4901161193847656e-8,-0.07719999551773071,-5.960464477539063e-8]},{"name":"R_finger4_1_045","translation":[0.08614000678062439,-0.17963993549346924,-0.04999983310699463],"children":[66]},{"name":"R_finger4_2_046","translation":[0,-0.05281996726989746,0]},{"name":"R_thumb_1_047","translation":[-0.05999999865889549,-0.0477900505065918,0.04003012180328369],"rotation":[0.18301276862621307,0.6830127239227295,-0.18301276862621307,0.6830127239227295],"children":[68]},{"name":"R_thumb_2_048","translation":[0,-0.135299950838089,0]},{"name":"R_finger1_1_049","translation":[-0.07999999821186066,-0.18671995401382446,-0.049999892711639404],"children":[70]},{"name":"R_finger1_2_050","translation":[-3.725290298461914e-9,-0.06978005170822144,-5.960464477539063e-8]},{"name":"attach_R_hand_051","translation":[6.938893903907228e-18,-0.20000004768371582,0.025000035762786865],"rotation":[-0.5000000596046448,-0.4999998211860657,0.5000000596046448,0.5000000596046448]},{"name":"R_hand_roll_052","translation":[1.1102230246251565e-16,-0.140749990940094,0],"rotation":[2.6224988403100724e-8,0.7071068286895752,-2.6224988403100724e-8,0.7071068286895752]},{"name":"R_elbow_053","translation":[0,-0.14980000257492065,-7.450580596923828e-9]},{"name":"L_thigh_054","translation":[0.11500001698732376,-0.09499001502990723,0.022770002484321594],"rotation":[1,0,0,-1.955777406692505e-7],"children":[75,79]},{"name":"L_calf_055","translation":[0,0.22254005074501038,3.725290298461914e-9],"children":[76,78]},{"name":"L_foot_056","translation":[0,0.14582999050617218,-3.725290298461914e-9],"rotation":[-0.48943570256233215,0,0,0.8720393776893616],"children":[77]},{"name":"L_toe_057","translation":[0,0.16047997772693634,-2.2351741790771484e-8],"rotation":[-0.2705249488353729,0,0,0.9627129435539246]},{"name":"L_hem_058","translation":[0,0.14582999050617218,-3.725290298461914e-9],"rotation":[-0.48943570256233215,0,0,0.8720393776893616]},{"name":"L_knee_059","translation":[0,0.22254005074501038,3.725290298461914e-9]},{"name":"R_thigh_060","translation":[-0.11500000208616257,-0.09499001502990723,0.022770002484321594],"children":[81,85]},{"name":"R_calf_061","translation":[0,-0.222540020942688,0],"children":[82,84]},{"name":"R_foot_00","translation":[0,-0.14583000540733337,0],"rotation":[-0.48943567276000977,0,0,0.8720393776893616],"children":[83]},{"name":"R_toe_062","translation":[0,-0.16047999262809753,7.450580596923828e-9],"rotation":[-0.2705247700214386,0,0,0.9627130031585693]},{"name":"R_hem_063","translation":[0,-0.14583000540733337,0],"rotation":[-0.48943567276000977,0,0,0.8720393776893616]},{"name":"R_knee_064","translation":[0,-0.222540020942688,0]}],"skins":[{"inverseBindMatrices":54,"skeleton":4,"joints":[4,21,22,23,24,25,26,27,28,29,30,31,32,33,34,35,36,37,38,39,40,41,42,43,44,45,46,47,48,49,50,51,52,53,54,55,56,57,58,59,60,61,62,63,64,65,66,67,68,69,70,71,72,73,74,75,76,77,78,79,80,81,82,83,84,85]}],"scenes":[{"name":"Sketchfab_Scene","nodes":[0]}],"scene":0,"extensionsUsed":["KHR_materials_ior","KHR_materials_specular"]}